<?xml version="1.0" standalone="no"?>
<!DOCTYPE svg PUBLIC "-//W3C//DTD SVG 20010904//EN"
 "http://www.w3.org/TR/2001/REC-SVG-20010904/DTD/svg10.dtd">
<svg version="1.0" xmlns="http://www.w3.org/2000/svg"
 width="1024.000000pt" height="1024.000000pt" viewBox="0 0 1024.000000 1024.000000"
 preserveAspectRatio="xMidYMid meet">
<metadata>
Created by potrace 1.14, written by Peter Selinger 2001-2017
</metadata>
<g transform="translate(0.000000,1024.000000) scale(0.100000,-0.100000)"
fill="#000000" stroke="none">
<path d="M0 5120 l0 -5120 5120 0 5120 0 0 5120 0 5120 -5120 0 -5120 0 0
-5120z m3650 2945 c60 -36 75 -75 75 -195 0 -126 -18 -171 -81 -204 -34 -18
-57 -21 -169 -21 -113 0 -135 3 -165 20 -60 36 -75 75 -75 195 0 123 20 176
77 203 52 24 66 26 188 24 95 -2 121 -5 150 -22z m-2187 -631 c123 -32 222
-103 282 -202 l30 -50 68 64 c85 79 161 129 251 167 61 26 87 31 181 35 65 2
134 -1 167 -7 137 -29 268 -131 326 -253 67 -140 65 -122 69 -785 l4 -602 -28
-18 c-23 -15 -50 -18 -188 -18 -137 0 -165 3 -188 18 l-27 17 0 483 c0 287 -4
508 -11 546 -14 87 -44 155 -86 192 -46 40 -76 51 -145 51 -78 0 -137 -34
-238 -137 l-80 -83 0 -516 0 -517 -24 -24 c-32 -32 -71 -38 -228 -33 -106 2
-139 7 -160 20 l-27 18 -3 527 c-3 459 -6 534 -20 576 -38 112 -109 168 -211
169 -83 1 -138 -29 -239 -132 l-88 -89 0 -516 c0 -329 -4 -523 -10 -535 -16
-29 -73 -40 -210 -40 -137 0 -194 11 -210 40 -14 25 -14 1554 0 1580 15 29 65
40 180 40 115 0 165 -11 180 -40 6 -10 10 -56 10 -101 l0 -81 63 54 c121 106
202 155 307 184 65 18 230 17 303 -2z m3732 1 c179 -47 309 -184 360 -380 27
-106 35 -270 35 -758 l0 -478 -24 -24 c-32 -32 -71 -38 -228 -33 -106 2 -139
7 -160 20 l-27 18 -3 522 c-3 459 -6 529 -21 574 -38 115 -116 176 -226 177
-87 0 -156 -37 -258 -139 l-83 -83 0 -516 c0 -329 -4 -523 -10 -535 -16 -29
-73 -40 -210 -40 -137 0 -194 11 -210 40 -14 25 -14 1554 0 1580 15 29 65 40
180 40 115 0 165 -11 180 -40 6 -10 10 -55 10 -100 l0 -82 51 44 c126 108 212
159 314 189 78 23 249 25 330 4z m-1563 -25 c73 -21 68 44 68 -816 0 -504 -4
-782 -10 -794 -16 -29 -73 -40 -210 -40 -137 0 -194 11 -210 40 -6 12 -10 290
-10 793 0 747 1 775 19 791 10 9 32 21 47 26 41 12 262 12 306 0z"/>
</g>
</svg>
