<?xml version="1.0" standalone="no"?>
<!DOCTYPE svg PUBLIC "-//W3C//DTD SVG 20010904//EN"
 "http://www.w3.org/TR/2001/REC-SVG-20010904/DTD/svg10.dtd">
<svg version="1.0" xmlns="http://www.w3.org/2000/svg"
 width="1024.000000pt" height="1024.000000pt" viewBox="0 0 1024.000000 1024.000000"
 preserveAspectRatio="xMidYMid meet">
<metadata>
Created by potrace 1.11, written by Peter Selinger 2001-2013
</metadata>
<g transform="translate(0.000000,1024.000000) scale(0.100000,-0.100000)"
fill="#000000" stroke="none">
<path d="M630 10233 c-56 -9 -160 -47 -235 -86 -61 -31 -102 -63 -170 -132
-98 -97 -151 -184 -197 -320 l-23 -70 0 -4505 0 -4505 23 -70 c46 -136 99
-223 197 -320 97 -98 184 -151 320 -197 l70 -23 4505 0 4505 0 70 23 c136 46
223 99 320 197 98 97 151 184 197 320 l23 70 0 4505 0 4505 -23 70 c-46 136
-99 223 -197 320 -95 96 -177 147 -315 197 l-65 23 -4490 1 c-2470 1 -4501 -1
-4515 -3z"/>
</g>
</svg>
